<svg xmlns="http://www.w3.org/2000/svg" xmlns:xlink="http://www.w3.org/1999/xlink" preserveAspectRatio="xMidYMid" width="3000" height="19" viewBox="0 0 2000 19"><style>.style0{fill-rule:	evenodd;}</style><defs><style>.cls-2 {fill: #f3f3f3;}</style></defs><path class="graph-line" d="M275.000 2 C275.000 2 275 19 275 19 C275.000 19 279 19 279 19 C279.000 19 279 2 279 2 C279.000 2 286 2 286 2 C286.000 2 286 14 286 14 C286.000 14 288 14 288 14 C288.000 14 288 2 288 2 C288.000 2 296 2 296 2 C296.000 2 296 14 296 14 C296.000 14 298 14 298 14 C298.000 14 298 2 298 2 C298.000 2 306 2 306 2 C306.000 2 306 14 306 14 C306.000 14 308 14 308 14 C308.000 14 308 2 308 2 C308.000 2 316 2 316 2 C316.000 2 316 14 316 14 C316.000 14 318 14 318 14 C318.000 14 318 2 318 2 C318.000 2 325 2 325 2 C325.000 2 325 19 325 19 C325.000 19 329 19 329 19 C329.000 19 329 2 329 2 C329.000 2 336 2 336 2 C336.000 2 336 14 336 14 C336.000 14 338 14 338 14 C338.000 14 338 2 338 2 C338.000 2 346 2 346 2 C346.000 2 346 14 346 14 C346.000 14 348 14 348 14 C348.000 14 348 2 348 2 C348.000 2 356 2 356 2 C356.000 2 356 14 356 14 C356.000 14 358 14 358 14 C358.000 14 358 2 358 2 C358.000 2 366 2 366 2 C366.000 2 366 14 366 14 C366.000 14 368 14 368 14 C368.000 14 368 2 368 2 C368.000 2 375 2 375 2 C375.000 2 375 19 375 19 C375.000 19 379 19 379 19 C379.000 19 379 2 379 2 C379.000 2 386 2 386 2 C386.000 2 386 14 386 14 C386.000 14 388 14 388 14 C388.000 14 388 2 388 2 C388.000 2 396 2 396 2 C396.000 2 396 14 396 14 C396.000 14 398 14 398 14 C398.000 14 398 2 398 2 C398.000 2 406 2 406 2 C406.000 2 406 14 406 14 C406.000 14 408 14 408 14 C408.000 14 408 2 408 2 C408.000 2 416 2 416 2 C416.000 2 416 14 416 14 C416.000 14 418 14 418 14 C418.000 14 418 2 418 2 C418.000 2 425 2 425 2 C425.000 2 425 19 425 19 C425.000 19 429 19 429 19 C429.000 19 429 2 429 2 C429.000 2 436 2 436 2 C436.000 2 436 14 436 14 C436.000 14 438 14 438 14 C438.000 14 438 2 438 2 C438.000 2 446 2 446 2 C446.000 2 446 14 446 14 C446.000 14 448 14 448 14 C448.000 14 448 2 448 2 C448.000 2 456 2 456 2 C456.000 2 456 14 456 14 C456.000 14 458 14 458 14 C458.000 14 458 2 458 2 C458.000 2 466 2 466 2 C466.000 2 466 14 466 14 C466.000 14 468 14 468 14 C468.000 14 468 2 468 2 C468.000 2 475 2 475 2 C475.000 2 475 19 475 19 C475.000 19 479 19 479 19 C479.000 19 479 2 479 2 C479.000 2 486 2 486 2 C486.000 2 486 14 486 14 C486.000 14 488 14 488 14 C488.000 14 488 2 488 2 C488.000 2 496 2 496 2 C496.000 2 496 14 496 14 C496.000 14 498 14 498 14 C498.000 14 498 2 498 2 C498.000 2 506 2 506 2 C506.000 2 506 14 506 14 C506.000 14 508 14 508 14 C508.000 14 508 2 508 2 C508.000 2 516 2 516 2 C516.000 2 516 14 516 14 C516.000 14 518 14 518 14 C518.000 14 518 2 518 2 C518.000 2 525 2 525 2 C525.000 2 525 19 525 19 C525.000 19 529 19 529 19 C529.000 19 529 2 529 2 C529.000 2 536 2 536 2 C536.000 2 536 14 536 14 C536.000 14 538 14 538 14 C538.000 14 538 2 538 2 C538.000 2 546 2 546 2 C546.000 2 546 14 546 14 C546.000 14 548 14 548 14 C548.000 14 548 2 548 2 C548.000 2 556 2 556 2 C556.000 2 556 14 556 14 C556.000 14 558 14 558 14 C558.000 14 558 2 558 2 C558.000 2 566 2 566 2 C566.000 2 566 14 566 14 C566.000 14 568 14 568 14 C568.000 14 568 2 568 2 C568.000 2 575 2 575 2 C575.000 2 575 19 575 19 C575.000 19 579 19 579 19 C579.000 19 579 2 579 2 C579.000 2 586 2 586 2 C586.000 2 586 14 586 14 C586.000 14 588 14 588 14 C588.000 14 588 2 588 2 C588.000 2 596 2 596 2 C596.000 2 596 14 596 14 C596.000 14 598 14 598 14 C598.000 14 598 2 598 2 C598.000 2 606 2 606 2 C606.000 2 606 14 606 14 C606.000 14 608 14 608 14 C608.000 14 608 2 608 2 C608.000 2 616 2 616 2 C616.000 2 616 14 616 14 C616.000 14 618 14 618 14 C618.000 14 618 2 618 2 C618.000 2 625 2 625 2 C625.000 2 625 19 625 19 C625.000 19 629 19 629 19 C629.000 19 629 2 629 2 C629.000 2 636 2 636 2 C636.000 2 636 14 636 14 C636.000 14 638 14 638 14 C638.000 14 638 2 638 2 C638.000 2 646 2 646 2 C646.000 2 646 14 646 14 C646.000 14 648 14 648 14 C648.000 14 648 2 648 2 C648.000 2 656 2 656 2 C656.000 2 656 14 656 14 C656.000 14 658 14 658 14 C658.000 14 658 2 658 2 C658.000 2 666 2 666 2 C666.000 2 666 14 666 14 C666.000 14 668 14 668 14 C668.000 14 668 2 668 2 C668.000 2 675 2 675 2 C675.000 2 675 19 675 19 C675.000 19 679 19 679 19 C679.000 19 679 2 679 2 C679.000 2 686 2 686 2 C686.000 2 686 14 686 14 C686.000 14 688 14 688 14 C688.000 14 688 2 688 2 C688.000 2 696 2 696 2 C696.000 2 696 14 696 14 C696.000 14 698 14 698 14 C698.000 14 698 2 698 2 C698.000 2 706 2 706 2 C706.000 2 706 14 706 14 C706.000 14 708 14 708 14 C708.000 14 708 2 708 2 C708.000 2 716 2 716 2 C716.000 2 716 14 716 14 C716.000 14 718 14 718 14 C718.000 14 718 2 718 2 C718.000 2 725 2 725 2 C725.000 2 725 19 725 19 C725.000 19 729 19 729 19 C729.000 19 729 2 729 2 C729.000 2 736 2 736 2 C736.000 2 736 14 736 14 C736.000 14 738 14 738 14 C738.000 14 738 2 738 2 C738.000 2 746 2 746 2 C746.000 2 746 14 746 14 C746.000 14 748 14 748 14 C748.000 14 748 2 748 2 C748.000 2 756 2 756 2 C756.000 2 756 14 756 14 C756.000 14 758 14 758 14 C758.000 14 758 2 758 2 C758.000 2 766 2 766 2 C766.000 2 766 14 766 14 C766.000 14 768 14 768 14 C768.000 14 768 2 768 2 C768.000 2 775 2 775 2 C775.000 2 775 19 775 19 C775.000 19 779 19 779 19 C779.000 19 779 2 779 2 C779.000 2 786 2 786 2 C786.000 2 786 14 786 14 C786.000 14 788 14 788 14 C788.000 14 788 2 788 2 C788.000 2 796 2 796 2 C796.000 2 796 14 796 14 C796.000 14 798 14 798 14 C798.000 14 798 2 798 2 C798.000 2 806 2 806 2 C806.000 2 806 14 806 14 C806.000 14 808 14 808 14 C808.000 14 808 2 808 2 C808.000 2 816 2 816 2 C816.000 2 816 14 816 14 C816.000 14 818 14 818 14 C818.000 14 818 2 818 2 C818.000 2 825 2 825 2 C825.000 2 825 19 825 19 C825.000 19 829 19 829 19 C829.000 19 829 2 829 2 C829.000 2 836 2 836 2 C836.000 2 836 14 836 14 C836.000 14 838 14 838 14 C838.000 14 838 2 838 2 C838.000 2 846 2 846 2 C846.000 2 846 14 846 14 C846.000 14 848 14 848 14 C848.000 14 848 2 848 2 C848.000 2 856 2 856 2 C856.000 2 856 14 856 14 C856.000 14 858 14 858 14 C858.000 14 858 2 858 2 C858.000 2 866 2 866 2 C866.000 2 866 14 866 14 C866.000 14 868 14 868 14 C868.000 14 868 2 868 2 C868.000 2 875 2 875 2 C875.000 2 875 19 875 19 C875.000 19 879 19 879 19 C879.000 19 879 2 879 2 C879.000 2 886 2 886 2 C886.000 2 886 14 886 14 C886.000 14 888 14 888 14 C888.000 14 888 2 888 2 C888.000 2 896 2 896 2 C896.000 2 896 14 896 14 C896.000 14 898 14 898 14 C898.000 14 898 2 898 2 C898.000 2 906 2 906 2 C906.000 2 906 14 906 14 C906.000 14 908 14 908 14 C908.000 14 908 2 908 2 C908.000 2 916 2 916 2 C916.000 2 916 14 916 14 C916.000 14 918 14 918 14 C918.000 14 918 2 918 2 C918.000 2 925 2 925 2 C925.000 2 925 19 925 19 C925.000 19 929 19 929 19 C929.000 19 929 2 929 2 C929.000 2 936 2 936 2 C936.000 2 936 14 936 14 C936.000 14 938 14 938 14 C938.000 14 938 2 938 2 C938.000 2 946 2 946 2 C946.000 2 946 14 946 14 C946.000 14 948 14 948 14 C948.000 14 948 2 948 2 C948.000 2 956 2 956 2 C956.000 2 956 14 956 14 C956.000 14 958 14 958 14 C958.000 14 958 2 958 2 C958.000 2 966 2 966 2 C966.000 2 966 14 966 14 C966.000 14 968 14 968 14 C968.000 14 968 2 968 2 C968.000 2 975 2 975 2 C975.000 2 975 19 975 19 C975.000 19 979 19 979 19 C979.000 19 979 2 979 2 C979.000 2 986 2 986 2 C986.000 2 986 14 986 14 C986.000 14 988 14 988 14 C988.000 14 988 2 988 2 C988.000 2 996 2 996 2 C996.000 2 996 14 996 14 C996.000 14 998 14 998 14 C998.000 14 998 2 998 2 C998.000 2 1006 2 1006 2 C1006.000 2 1006 14 1006 14 C1006.000 14 1008 14 1008 14 C1008.000 14 1008 2 1008 2 C1008.000 2 1016 2 1016 2 C1016.000 2 1016 14 1016 14 C1016.000 14 1018 14 1018 14 C1018.000 14 1018 2 1018 2 C1018.000 2 1025 2 1025 2 C1025.000 2 1025 19 1025 19 C1025.000 19 1029 19 1029 19 C1029.000 19 1029 2 1029 2 C1029.000 2 1036 2 1036 2 C1036.000 2 1036 14 1036 14 C1036.000 14 1038 14 1038 14 C1038.000 14 1038 2 1038 2 C1038.000 2 1046 2 1046 2 C1046.000 2 1046 14 1046 14 C1046.000 14 1048 14 1048 14 C1048.000 14 1048 2 1048 2 C1048.000 2 1056 2 1056 2 C1056.000 2 1056 14 1056 14 C1056.000 14 1058 14 1058 14 C1058.000 14 1058 2 1058 2 C1058.000 2 1066 2 1066 2 C1066.000 2 1066 14 1066 14 C1066.000 14 1068 14 1068 14 C1068.000 14 1068 2 1068 2 C1068.000 2 1075 2 1075 2 C1075.000 2 1075 19 1075 19 C1075.000 19 1079 19 1079 19 C1079.000 19 1079 2 1079 2 C1079.000 2 1086 2 1086 2 C1086.000 2 1086 14 1086 14 C1086.000 14 1088 14 1088 14 C1088.000 14 1088 2 1088 2 C1088.000 2 1096 2 1096 2 C1096.000 2 1096 14 1096 14 C1096.000 14 1098 14 1098 14 C1098.000 14 1098 2 1098 2 C1098.000 2 1106 2 1106 2 C1106.000 2 1106 14 1106 14 C1106.000 14 1108 14 1108 14 C1108.000 14 1108 2 1108 2 C1108.000 2 1116 2 1116 2 C1116.000 2 1116 14 1116 14 C1116.000 14 1118 14 1118 14 C1118.000 14 1118 2 1118 2 C1118.000 2 1125 2 1125 2 C1125.000 2 1125 19 1125 19 C1125.000 19 1129 19 1129 19 C1129.000 19 1129 2 1129 2 C1129.000 2 1136 2 1136 2 C1136.000 2 1136 14 1136 14 C1136.000 14 1138 14 1138 14 C1138.000 14 1138 2 1138 2 C1138.000 2 1146 2 1146 2 C1146.000 2 1146 14 1146 14 C1146.000 14 1148 14 1148 14 C1148.000 14 1148 2 1148 2 C1148.000 2 1156 2 1156 2 C1156.000 2 1156 14 1156 14 C1156.000 14 1158 14 1158 14 C1158.000 14 1158 2 1158 2 C1158.000 2 1166 2 1166 2 C1166.000 2 1166 14 1166 14 C1166.000 14 1168 14 1168 14 C1168.000 14 1168 2 1168 2 C1168.000 2 1175 2 1175 2 C1175.000 2 1175 19 1175 19 C1175.000 19 1179 19 1179 19 C1179.000 19 1179 2 1179 2 C1179.000 2 1186 2 1186 2 C1186.000 2 1186 14 1186 14 C1186.000 14 1188 14 1188 14 C1188.000 14 1188 2 1188 2 C1188.000 2 1196 2 1196 2 C1196.000 2 1196 14 1196 14 C1196.000 14 1198 14 1198 14 C1198.000 14 1198 2 1198 2 C1198.000 2 1206 2 1206 2 C1206.000 2 1206 14 1206 14 C1206.000 14 1208 14 1208 14 C1208.000 14 1208 2 1208 2 C1208.000 2 1216 2 1216 2 C1216.000 2 1216 14 1216 14 C1216.000 14 1218 14 1218 14 C1218.000 14 1218 2 1218 2 C1218.000 2 1225 2 1225 2 C1225.000 2 1225 19 1225 19 C1225.000 19 1229 19 1229 19 C1229.000 19 1229 2 1229 2 C1229.000 2 1236 2 1236 2 C1236.000 2 1236 14 1236 14 C1236.000 14 1238 14 1238 14 C1238.000 14 1238 2 1238 2 C1238.000 2 1246 2 1246 2 C1246.000 2 1246 14 1246 14 C1246.000 14 1248 14 1248 14 C1248.000 14 1248 2 1248 2 C1248.000 2 1256 2 1256 2 C1256.000 2 1256 14 1256 14 C1256.000 14 1258 14 1258 14 C1258.000 14 1258 2 1258 2 C1258.000 2 1266 2 1266 2 C1266.000 2 1266 14 1266 14 C1266.000 14 1268 14 1268 14 C1268.000 14 1268 2 1268 2 C1268.000 2 1275 2 1275 2 C1275.000 2 1275 19 1275 19 C1275.000 19 1279 19 1279 19 C1279.000 19 1279 2 1279 2 C1279.000 2 1286 2 1286 2 C1286.000 2 1286 14 1286 14 C1286.000 14 1288 14 1288 14 C1288.000 14 1288 2 1288 2 C1288.000 2 1296 2 1296 2 C1296.000 2 1296 14 1296 14 C1296.000 14 1298 14 1298 14 C1298.000 14 1298 2 1298 2 C1298.000 2 1306 2 1306 2 C1306.000 2 1306 14 1306 14 C1306.000 14 1308 14 1308 14 C1308.000 14 1308 2 1308 2 C1308.000 2 1316 2 1316 2 C1316.000 2 1316 14 1316 14 C1316.000 14 1318 14 1318 14 C1318.000 14 1318 2 1318 2 C1318.000 2 1325 2 1325 2 C1325.000 2 1325 19 1325 19 C1325.000 19 1329 19 1329 19 C1329.000 19 1329 2 1329 2 C1329.000 2 1336 2 1336 2 C1336.000 2 1336 14 1336 14 C1336.000 14 1338 14 1338 14 C1338.000 14 1338 2 1338 2 C1338.000 2 1346 2 1346 2 C1346.000 2 1346 14 1346 14 C1346.000 14 1348 14 1348 14 C1348.000 14 1348 2 1348 2 C1348.000 2 1356 2 1356 2 C1356.000 2 1356 14 1356 14 C1356.000 14 1358 14 1358 14 C1358.000 14 1358 2 1358 2 C1358.000 2 1366 2 1366 2 C1366.000 2 1366 14 1366 14 C1366.000 14 1368 14 1368 14 C1368.000 14 1368 2 1368 2 C1368.000 2 1375 2 1375 2 C1375.000 2 1375 19 1375 19 C1375.000 19 1379 19 1379 19 C1379.000 19 1379 2 1379 2 C1379.000 2 1386 2 1386 2 C1386.000 2 1386 14 1386 14 C1386.000 14 1388 14 1388 14 C1388.000 14 1388 2 1388 2 C1388.000 2 1396 2 1396 2 C1396.000 2 1396 14 1396 14 C1396.000 14 1398 14 1398 14 C1398.000 14 1398 2 1398 2 C1398.000 2 1406 2 1406 2 C1406.000 2 1406 14 1406 14 C1406.000 14 1408 14 1408 14 C1408.000 14 1408 2 1408 2 C1408.000 2 1416 2 1416 2 C1416.000 2 1416 14 1416 14 C1416.000 14 1418 14 1418 14 C1418.000 14 1418 2 1418 2 C1418.000 2 1425 2 1425 2 C1425.000 2 1425 19 1425 19 C1425.000 19 1429 19 1429 19 C1429.000 19 1429 2 1429 2 C1429.000 2 1436 2 1436 2 C1436.000 2 1436 14 1436 14 C1436.000 14 1438 14 1438 14 C1438.000 14 1438 2 1438 2 C1438.000 2 1446 2 1446 2 C1446.000 2 1446 14 1446 14 C1446.000 14 1448 14 1448 14 C1448.000 14 1448 2 1448 2 C1448.000 2 1456 2 1456 2 C1456.000 2 1456 14 1456 14 C1456.000 14 1458 14 1458 14 C1458.000 14 1458 2 1458 2 C1458.000 2 1466 2 1466 2 C1466.000 2 1466 14 1466 14 C1466.000 14 1468 14 1468 14 C1468.000 14 1468 2 1468 2 C1468.000 2 1475 2 1475 2 C1475.000 2 1475 19 1475 19 C1475.000 19 1479 19 1479 19 C1479.000 19 1479 2 1479 2 C1479.000 2 1486 2 1486 2 C1486.000 2 1486 14 1486 14 C1486.000 14 1488 14 1488 14 C1488.000 14 1488 2 1488 2 C1488.000 2 1496 2 1496 2 C1496.000 2 1496 14 1496 14 C1496.000 14 1498 14 1498 14 C1498.000 14 1498 2 1498 2 C1498.000 2 1506 2 1506 2 C1506.000 2 1506 14 1506 14 C1506.000 14 1508 14 1508 14 C1508.000 14 1508 2 1508 2 C1508.000 2 1516 2 1516 2 C1516.000 2 1516 14 1516 14 C1516.000 14 1518 14 1518 14 C1518.000 14 1518 2 1518 2 C1518.000 2 1525 2 1525 2 C1525.000 2 1525 19 1525 19 C1525.000 19 1529 19 1529 19 C1529.000 19 1529 2 1529 2 C1529.000 2 1536 2 1536 2 C1536.000 2 1536 14 1536 14 C1536.000 14 1538 14 1538 14 C1538.000 14 1538 2 1538 2 C1538.000 2 1546 2 1546 2 C1546.000 2 1546 14 1546 14 C1546.000 14 1548 14 1548 14 C1548.000 14 1548 2 1548 2 C1548.000 2 1556 2 1556 2 C1556.000 2 1556 14 1556 14 C1556.000 14 1558 14 1558 14 C1558.000 14 1558 2 1558 2 C1558.000 2 1566 2 1566 2 C1566.000 2 1566 14 1566 14 C1566.000 14 1568 14 1568 14 C1568.000 14 1568 2 1568 2 C1568.000 2 1575 2 1575 2 C1575.000 2 1575 19 1575 19 C1575.000 19 1579 19 1579 19 C1579.000 19 1579 2 1579 2 C1579.000 2 1586 2 1586 2 C1586.000 2 1586 14 1586 14 C1586.000 14 1588 14 1588 14 C1588.000 14 1588 2 1588 2 C1588.000 2 1596 2 1596 2 C1596.000 2 1596 14 1596 14 C1596.000 14 1598 14 1598 14 C1598.000 14 1598 2 1598 2 C1598.000 2 1606 2 1606 2 C1606.000 2 1606 14 1606 14 C1606.000 14 1608 14 1608 14 C1608.000 14 1608 2 1608 2 C1608.000 2 1616 2 1616 2 C1616.000 2 1616 14 1616 14 C1616.000 14 1618 14 1618 14 C1618.000 14 1618 2 1618 2 C1618.000 2 1625 2 1625 2 C1625.000 2 1625 19 1625 19 C1625.000 19 1629 19 1629 19 C1629.000 19 1629 2 1629 2 C1629.000 2 1636 2 1636 2 C1636.000 2 1636 14 1636 14 C1636.000 14 1638 14 1638 14 C1638.000 14 1638 2 1638 2 C1638.000 2 1646 2 1646 2 C1646.000 2 1646 14 1646 14 C1646.000 14 1648 14 1648 14 C1648.000 14 1648 2 1648 2 C1648.000 2 1656 2 1656 2 C1656.000 2 1656 14 1656 14 C1656.000 14 1658 14 1658 14 C1658.000 14 1658 2 1658 2 C1658.000 2 1666 2 1666 2 C1666.000 2 1666 14 1666 14 C1666.000 14 1668 14 1668 14 C1668.000 14 1668 2 1668 2 C1668.000 2 1675 2 1675 2 C1675.000 2 1675 19 1675 19 C1675.000 19 1679 19 1679 19 C1679.000 19 1679 2 1679 2 C1679.000 2 1686 2 1686 2 C1686.000 2 1686 14 1686 14 C1686.000 14 1688 14 1688 14 C1688.000 14 1688 2 1688 2 C1688.000 2 1696 2 1696 2 C1696.000 2 1696 14 1696 14 C1696.000 14 1698 14 1698 14 C1698.000 14 1698 2 1698 2 C1698.000 2 1706 2 1706 2 C1706.000 2 1706 14 1706 14 C1706.000 14 1708 14 1708 14 C1708.000 14 1708 2 1708 2 C1708.000 2 1716 2 1716 2 C1716.000 2 1716 14 1716 14 C1716.000 14 1718 14 1718 14 C1718.000 14 1718 2 1718 2 C1718.000 2 1725 2 1725 2 C1725.000 2 1725 19 1725 19 C1725.000 19 1729 19 1729 19 C1729.000 19 1729 2 1729 2 C1729.000 2 1736 2 1736 2 C1736.000 2 1736 14 1736 14 C1736.000 14 1738 14 1738 14 C1738.000 14 1738 2 1738 2 C1738.000 2 1746 2 1746 2 C1746.000 2 1746 14 1746 14 C1746.000 14 1748 14 1748 14 C1748.000 14 1748 2 1748 2 C1748.000 2 1756 2 1756 2 C1756.000 2 1756 14 1756 14 C1756.000 14 1758 14 1758 14 C1758.000 14 1758 2 1758 2 C1758.000 2 1766 2 1766 2 C1766.000 2 1766 14 1766 14 C1766.000 14 1768 14 1768 14 C1768.000 14 1768 2 1768 2 C1768.000 2 1775 2 1775 2 C1775.000 2 1775 19 1775 19 C1775.000 19 1779 19 1779 19 C1779.000 19 1779 2 1779 2 C1779.000 2 1786 2 1786 2 C1786.000 2 1786 14 1786 14 C1786.000 14 1788 14 1788 14 C1788.000 14 1788 2 1788 2 C1788.000 2 1796 2 1796 2 C1796.000 2 1796 14 1796 14 C1796.000 14 1798 14 1798 14 C1798.000 14 1798 2 1798 2 C1798.000 2 1806 2 1806 2 C1806.000 2 1806 14 1806 14 C1806.000 14 1808 14 1808 14 C1808.000 14 1808 2 1808 2 C1808.000 2 1816 2 1816 2 C1816.000 2 1816 14 1816 14 C1816.000 14 1818 14 1818 14 C1818.000 14 1818 2 1818 2 C1818.000 2 1825 2 1825 2 C1825.000 2 1825 19 1825 19 C1825.000 19 1829 19 1829 19 C1829.000 19 1829 2 1829 2 C1829.000 2 1836 2 1836 2 C1836.000 2 1836 14 1836 14 C1836.000 14 1838 14 1838 14 C1838.000 14 1838 2 1838 2 C1838.000 2 1846 2 1846 2 C1846.000 2 1846 14 1846 14 C1846.000 14 1848 14 1848 14 C1848.000 14 1848 2 1848 2 C1848.000 2 1856 2 1856 2 C1856.000 2 1856 14 1856 14 C1856.000 14 1858 14 1858 14 C1858.000 14 1858 2 1858 2 C1858.000 2 1866 2 1866 2 C1866.000 2 1866 14 1866 14 C1866.000 14 1868 14 1868 14 C1868.000 14 1868 2 1868 2 C1868.000 2 1875 2 1875 2 C1875.000 2 1875 19 1875 19 C1875.000 19 1879 19 1879 19 C1879.000 19 1879 2 1879 2 C1879.000 2 1886 2 1886 2 C1886.000 2 1886 14 1886 14 C1886.000 14 1888 14 1888 14 C1888.000 14 1888 2 1888 2 C1888.000 2 1896 2 1896 2 C1896.000 2 1896 14 1896 14 C1896.000 14 1898 14 1898 14 C1898.000 14 1898 2 1898 2 C1898.000 2 1906 2 1906 2 C1906.000 2 1906 14 1906 14 C1906.000 14 1908 14 1908 14 C1908.000 14 1908 2 1908 2 C1908.000 2 1916 2 1916 2 C1916.000 2 1916 14 1916 14 C1916.000 14 1918 14 1918 14 C1918.000 14 1918 2 1918 2 C1918.000 2 1925 2 1925 2 C1925.000 2 1925 19 1925 19 C1925.000 19 1929 19 1929 19 C1929.000 19 1929 2 1929 2 C1929.000 2 1936 2 1936 2 C1936.000 2 1936 14 1936 14 C1936.000 14 1938 14 1938 14 C1938.000 14 1938 2 1938 2 C1938.000 2 1946 2 1946 2 C1946.000 2 1946 14 1946 14 C1946.000 14 1948 14 1948 14 C1948.000 14 1948 2 1948 2 C1948.000 2 1956 2 1956 2 C1956.000 2 1956 14 1956 14 C1956.000 14 1958 14 1958 14 C1958.000 14 1958 2 1958 2 C1958.000 2 1966 2 1966 2 C1966.000 2 1966 14 1966 14 C1966.000 14 1968 14 1968 14 C1968.000 14 1968 2 1968 2 C1968.000 2 1975 2 1975 2 C1975.000 2 1975 19 1975 19 C1975.000 19 1979 19 1979 19 C1979.000 19 1979 2 1979 2 C1979.000 2 1986 2 1986 2 C1986.000 2 1986 14 1986 14 C1986.000 14 1988 14 1988 14 C1988.000 14 1988 2 1988 2 C1988.000 2 1996 2 1996 2 C1996.000 2 1996 14 1996 14 C1996.000 14 1998 14 1998 14 C1998.000 14 1998 2 1998 2 C1998.000 2 2006 2 2006 2 C2006.000 2 2006 14 2006 14 C2006.000 14 2008 14 2008 14 C2008.000 14 2008 2 2008 2 C2008.000 2 2016 2 2016 2 C2016.000 2 2016 14 2016 14 C2016.000 14 2018 14 2018 14 C2018.000 14 2018 2 2018 2 C2018.000 2 2025 2 2025 2 C2025.000 2 2025 19 2025 19 C2025.000 19 2029 19 2029 19 C2029.000 19 2029 2 2029 2 C2029.000 2 2036 2 2036 2 C2036.000 2 2036 14 2036 14 C2036.000 14 2038 14 2038 14 C2038.000 14 2038 2 2038 2 C2038.000 2 2046 2 2046 2 C2046.000 2 2046 14 2046 14 C2046.000 14 2048 14 2048 14 C2048.000 14 2048 2 2048 2 C2048.000 2 2056 2 2056 2 C2056.000 2 2056 14 2056 14 C2056.000 14 2058 14 2058 14 C2058.000 14 2058 2 2058 2 C2058.000 2 2066 2 2066 2 C2066.000 2 2066 14 2066 14 C2066.000 14 2068 14 2068 14 C2068.000 14 2068 2 2068 2 C2068.000 2 2075 2 2075 2 C2075.000 2 2075 19 2075 19 C2075.000 19 2079 19 2079 19 C2079.000 19 2079 2 2079 2 C2079.000 2 2086 2 2086 2 C2086.000 2 2086 14 2086 14 C2086.000 14 2088 14 2088 14 C2088.000 14 2088 2 2088 2 C2088.000 2 2096 2 2096 2 C2096.000 2 2096 14 2096 14 C2096.000 14 2098 14 2098 14 C2098.000 14 2098 2 2098 2 C2098.000 2 2106 2 2106 2 C2106.000 2 2106 14 2106 14 C2106.000 14 2108 14 2108 14 C2108.000 14 2108 2 2108 2 C2108.000 2 2116 2 2116 2 C2116.000 2 2116 14 2116 14 C2116.000 14 2118 14 2118 14 C2118.000 14 2118 2 2118 2 C2118.000 2 2125 2 2125 2 C2125.000 2 2125 19 2125 19 C2125.000 19 2129 19 2129 19 C2129.000 19 2129 2 2129 2 C2129.000 2 2136 2 2136 2 C2136.000 2 2136 14 2136 14 C2136.000 14 2138 14 2138 14 C2138.000 14 2138 2 2138 2 C2138.000 2 2146 2 2146 2 C2146.000 2 2146 14 2146 14 C2146.000 14 2148 14 2148 14 C2148.000 14 2148 2 2148 2 C2148.000 2 2156 2 2156 2 C2156.000 2 2156 14 2156 14 C2156.000 14 2158 14 2158 14 C2158.000 14 2158 2 2158 2 C2158.000 2 2166 2 2166 2 C2166.000 2 2166 14 2166 14 C2166.000 14 2168 14 2168 14 C2168.000 14 2168 2 2168 2 C2168.000 2 2175 2 2175 2 C2175.000 2 2175 -0 2175 -0 C2175.000 -0 -675 -0 -675 -0 C-675.000 -0 -675 19 -675 19 C-675.000 19 -671 19 -671 19 C-671.000 19 -671 2 -671 2 C-671.000 2 -664 2 -664 2 C-664.000 2 -664 14 -664 14 C-664.000 14 -662 14 -662 14 C-662.000 14 -662 2 -662 2 C-662.000 2 -654 2 -654 2 C-654.000 2 -654 14 -654 14 C-654.000 14 -652 14 -652 14 C-652.000 14 -652 2 -652 2 C-652.000 2 -644 2 -644 2 C-644.000 2 -644 14 -644 14 C-644.000 14 -642 14 -642 14 C-642.000 14 -642 2 -642 2 C-642.000 2 -634 2 -634 2 C-634.000 2 -634 14 -634 14 C-634.000 14 -632 14 -632 14 C-632.000 14 -632 2 -632 2 C-632.000 2 -625 2 -625 2 C-625.000 2 -625 19 -625 19 C-625.000 19 -621 19 -621 19 C-621.000 19 -621 2 -621 2 C-621.000 2 -614 2 -614 2 C-614.000 2 -614 14 -614 14 C-614.000 14 -612 14 -612 14 C-612.000 14 -612 2 -612 2 C-612.000 2 -604 2 -604 2 C-604.000 2 -604 14 -604 14 C-604.000 14 -602 14 -602 14 C-602.000 14 -602 2 -602 2 C-602.000 2 -594 2 -594 2 C-594.000 2 -594 14 -594 14 C-594.000 14 -592 14 -592 14 C-592.000 14 -592 2 -592 2 C-592.000 2 -584 2 -584 2 C-584.000 2 -584 14 -584 14 C-584.000 14 -582 14 -582 14 C-582.000 14 -582 2 -582 2 C-582.000 2 -575 2 -575 2 C-575.000 2 -575 19 -575 19 C-575.000 19 -571 19 -571 19 C-571.000 19 -571 2 -571 2 C-571.000 2 -564 2 -564 2 C-564.000 2 -564 14 -564 14 C-564.000 14 -562 14 -562 14 C-562.000 14 -562 2 -562 2 C-562.000 2 -554 2 -554 2 C-554.000 2 -554 14 -554 14 C-554.000 14 -552 14 -552 14 C-552.000 14 -552 2 -552 2 C-552.000 2 -544 2 -544 2 C-544.000 2 -544 14 -544 14 C-544.000 14 -542 14 -542 14 C-542.000 14 -542 2 -542 2 C-542.000 2 -534 2 -534 2 C-534.000 2 -534 14 -534 14 C-534.000 14 -532 14 -532 14 C-532.000 14 -532 2 -532 2 C-532.000 2 -525 2 -525 2 C-525.000 2 -525 19 -525 19 C-525.000 19 -521 19 -521 19 C-521.000 19 -521 2 -521 2 C-521.000 2 -514 2 -514 2 C-514.000 2 -514 14 -514 14 C-514.000 14 -512 14 -512 14 C-512.000 14 -512 2 -512 2 C-512.000 2 -504 2 -504 2 C-504.000 2 -504 14 -504 14 C-504.000 14 -502 14 -502 14 C-502.000 14 -502 2 -502 2 C-502.000 2 -494 2 -494 2 C-494.000 2 -494 14 -494 14 C-494.000 14 -492 14 -492 14 C-492.000 14 -492 2 -492 2 C-492.000 2 -484 2 -484 2 C-484.000 2 -484 14 -484 14 C-484.000 14 -482 14 -482 14 C-482.000 14 -482 2 -482 2 C-482.000 2 -475 2 -475 2 C-475.000 2 -475 19 -475 19 C-475.000 19 -471 19 -471 19 C-471.000 19 -471 2 -471 2 C-471.000 2 -464 2 -464 2 C-464.000 2 -464 14 -464 14 C-464.000 14 -462 14 -462 14 C-462.000 14 -462 2 -462 2 C-462.000 2 -454 2 -454 2 C-454.000 2 -454 14 -454 14 C-454.000 14 -452 14 -452 14 C-452.000 14 -452 2 -452 2 C-452.000 2 -444 2 -444 2 C-444.000 2 -444 14 -444 14 C-444.000 14 -442 14 -442 14 C-442.000 14 -442 2 -442 2 C-442.000 2 -434 2 -434 2 C-434.000 2 -434 14 -434 14 C-434.000 14 -432 14 -432 14 C-432.000 14 -432 2 -432 2 C-432.000 2 -425 2 -425 2 C-425.000 2 -425 19 -425 19 C-425.000 19 -421 19 -421 19 C-421.000 19 -421 2 -421 2 C-421.000 2 -414 2 -414 2 C-414.000 2 -414 14 -414 14 C-414.000 14 -412 14 -412 14 C-412.000 14 -412 2 -412 2 C-412.000 2 -404 2 -404 2 C-404.000 2 -404 14 -404 14 C-404.000 14 -402 14 -402 14 C-402.000 14 -402 2 -402 2 C-402.000 2 -394 2 -394 2 C-394.000 2 -394 14 -394 14 C-394.000 14 -392 14 -392 14 C-392.000 14 -392 2 -392 2 C-392.000 2 -384 2 -384 2 C-384.000 2 -384 14 -384 14 C-384.000 14 -382 14 -382 14 C-382.000 14 -382 2 -382 2 C-382.000 2 -375 2 -375 2 C-375.000 2 -375 19 -375 19 C-375.000 19 -371 19 -371 19 C-371.000 19 -371 2 -371 2 C-371.000 2 -364 2 -364 2 C-364.000 2 -364 14 -364 14 C-364.000 14 -362 14 -362 14 C-362.000 14 -362 2 -362 2 C-362.000 2 -354 2 -354 2 C-354.000 2 -354 14 -354 14 C-354.000 14 -352 14 -352 14 C-352.000 14 -352 2 -352 2 C-352.000 2 -344 2 -344 2 C-344.000 2 -344 14 -344 14 C-344.000 14 -342 14 -342 14 C-342.000 14 -342 2 -342 2 C-342.000 2 -334 2 -334 2 C-334.000 2 -334 14 -334 14 C-334.000 14 -332 14 -332 14 C-332.000 14 -332 2 -332 2 C-332.000 2 -325 2 -325 2 C-325.000 2 -325 19 -325 19 C-325.000 19 -321 19 -321 19 C-321.000 19 -321 2 -321 2 C-321.000 2 -314 2 -314 2 C-314.000 2 -314 14 -314 14 C-314.000 14 -312 14 -312 14 C-312.000 14 -312 2 -312 2 C-312.000 2 -304 2 -304 2 C-304.000 2 -304 14 -304 14 C-304.000 14 -302 14 -302 14 C-302.000 14 -302 2 -302 2 C-302.000 2 -294 2 -294 2 C-294.000 2 -294 14 -294 14 C-294.000 14 -292 14 -292 14 C-292.000 14 -292 2 -292 2 C-292.000 2 -284 2 -284 2 C-284.000 2 -284 14 -284 14 C-284.000 14 -282 14 -282 14 C-282.000 14 -282 2 -282 2 C-282.000 2 -275 2 -275 2 C-275.000 2 -275 19 -275 19 C-275.000 19 -271 19 -271 19 C-271.000 19 -271 2 -271 2 C-271.000 2 -264 2 -264 2 C-264.000 2 -264 14 -264 14 C-264.000 14 -262 14 -262 14 C-262.000 14 -262 2 -262 2 C-262.000 2 -254 2 -254 2 C-254.000 2 -254 14 -254 14 C-254.000 14 -252 14 -252 14 C-252.000 14 -252 2 -252 2 C-252.000 2 -244 2 -244 2 C-244.000 2 -244 14 -244 14 C-244.000 14 -242 14 -242 14 C-242.000 14 -242 2 -242 2 C-242.000 2 -234 2 -234 2 C-234.000 2 -234 14 -234 14 C-234.000 14 -232 14 -232 14 C-232.000 14 -232 2 -232 2 C-232.000 2 -225 2 -225 2 C-225.000 2 -225 19 -225 19 C-225.000 19 -221 19 -221 19 C-221.000 19 -221 2 -221 2 C-221.000 2 -214 2 -214 2 C-214.000 2 -214 14 -214 14 C-214.000 14 -212 14 -212 14 C-212.000 14 -212 2 -212 2 C-212.000 2 -204 2 -204 2 C-204.000 2 -204 14 -204 14 C-204.000 14 -202 14 -202 14 C-202.000 14 -202 2 -202 2 C-202.000 2 -194 2 -194 2 C-194.000 2 -194 14 -194 14 C-194.000 14 -192 14 -192 14 C-192.000 14 -192 2 -192 2 C-192.000 2 -184 2 -184 2 C-184.000 2 -184 14 -184 14 C-184.000 14 -182 14 -182 14 C-182.000 14 -182 2 -182 2 C-182.000 2 -175 2 -175 2 C-175.000 2 -175 19 -175 19 C-175.000 19 -171 19 -171 19 C-171.000 19 -171 2 -171 2 C-171.000 2 -164 2 -164 2 C-164.000 2 -164 14 -164 14 C-164.000 14 -162 14 -162 14 C-162.000 14 -162 2 -162 2 C-162.000 2 -154 2 -154 2 C-154.000 2 -154 14 -154 14 C-154.000 14 -152 14 -152 14 C-152.000 14 -152 2 -152 2 C-152.000 2 -144 2 -144 2 C-144.000 2 -144 14 -144 14 C-144.000 14 -142 14 -142 14 C-142.000 14 -142 2 -142 2 C-142.000 2 -134 2 -134 2 C-134.000 2 -134 14 -134 14 C-134.000 14 -132 14 -132 14 C-132.000 14 -132 2 -132 2 C-132.000 2 -125 2 -125 2 C-125.000 2 -125 19 -125 19 C-125.000 19 -121 19 -121 19 C-121.000 19 -121 2 -121 2 C-121.000 2 -114 2 -114 2 C-114.000 2 -114 14 -114 14 C-114.000 14 -112 14 -112 14 C-112.000 14 -112 2 -112 2 C-112.000 2 -104 2 -104 2 C-104.000 2 -104 14 -104 14 C-104.000 14 -102 14 -102 14 C-102.000 14 -102 2 -102 2 C-102.000 2 -94 2 -94 2 C-94.000 2 -94 14 -94 14 C-94.000 14 -92 14 -92 14 C-92.000 14 -92 2 -92 2 C-92.000 2 -84 2 -84 2 C-84.000 2 -84 14 -84 14 C-84.000 14 -82 14 -82 14 C-82.000 14 -82 2 -82 2 C-82.000 2 -75 2 -75 2 C-75.000 2 -75 19 -75 19 C-75.000 19 -71 19 -71 19 C-71.000 19 -71 2 -71 2 C-71.000 2 -64 2 -64 2 C-64.000 2 -64 14 -64 14 C-64.000 14 -62 14 -62 14 C-62.000 14 -62 2 -62 2 C-62.000 2 -54 2 -54 2 C-54.000 2 -54 14 -54 14 C-54.000 14 -52 14 -52 14 C-52.000 14 -52 2 -52 2 C-52.000 2 -44 2 -44 2 C-44.000 2 -44 14 -44 14 C-44.000 14 -42 14 -42 14 C-42.000 14 -42 2 -42 2 C-42.000 2 -34 2 -34 2 C-34.000 2 -34 14 -34 14 C-34.000 14 -32 14 -32 14 C-32.000 14 -32 2 -32 2 C-32.000 2 -25 2 -25 2 C-25.000 2 -25 19 -25 19 C-25.000 19 -21 19 -21 19 C-21.000 19 -21 2 -21 2 C-21.000 2 -14 2 -14 2 C-14.000 2 -14 14 -14 14 C-14.000 14 -12 14 -12 14 C-12.000 14 -12 2 -12 2 C-12.000 2 -4 2 -4 2 C-4.000 2 -4 14 -4 14 C-4.000 14 -2 14 -2 14 C-2.000 14 -2 2 -2 2 C-2.000 2 6 2 6 2 C6.000 2 6 14 6 14 C6.000 14 8 14 8 14 C8.000 14 8 2 8 2 C8.000 2 16 2 16 2 C16.000 2 16 14 16 14 C16.000 14 18 14 18 14 C18.000 14 18 2 18 2 C18.000 2 25 2 25 2 C25.000 2 25 19 25 19 C25.000 19 29 19 29 19 C29.000 19 29 2 29 2 C29.000 2 36 2 36 2 C36.000 2 36 14 36 14 C36.000 14 38 14 38 14 C38.000 14 38 2 38 2 C38.000 2 46 2 46 2 C46.000 2 46 14 46 14 C46.000 14 48 14 48 14 C48.000 14 48 2 48 2 C48.000 2 56 2 56 2 C56.000 2 56 14 56 14 C56.000 14 58 14 58 14 C58.000 14 58 2 58 2 C58.000 2 66 2 66 2 C66.000 2 66 14 66 14 C66.000 14 68 14 68 14 C68.000 14 68 2 68 2 C68.000 2 75 2 75 2 C75.000 2 75 19 75 19 C75.000 19 79 19 79 19 C79.000 19 79 2 79 2 C79.000 2 86 2 86 2 C86.000 2 86 14 86 14 C86.000 14 88 14 88 14 C88.000 14 88 2 88 2 C88.000 2 96 2 96 2 C96.000 2 96 14 96 14 C96.000 14 98 14 98 14 C98.000 14 98 2 98 2 C98.000 2 106 2 106 2 C106.000 2 106 14 106 14 C106.000 14 108 14 108 14 C108.000 14 108 2 108 2 C108.000 2 116 2 116 2 C116.000 2 116 14 116 14 C116.000 14 118 14 118 14 C118.000 14 118 2 118 2 C118.000 2 125 2 125 2 C125.000 2 125 19 125 19 C125.000 19 129 19 129 19 C129.000 19 129 2 129 2 C129.000 2 136 2 136 2 C136.000 2 136 14 136 14 C136.000 14 138 14 138 14 C138.000 14 138 2 138 2 C138.000 2 146 2 146 2 C146.000 2 146 14 146 14 C146.000 14 148 14 148 14 C148.000 14 148 2 148 2 C148.000 2 156 2 156 2 C156.000 2 156 14 156 14 C156.000 14 158 14 158 14 C158.000 14 158 2 158 2 C158.000 2 166 2 166 2 C166.000 2 166 14 166 14 C166.000 14 168 14 168 14 C168.000 14 168 2 168 2 C168.000 2 175 2 175 2 C175.000 2 175 19 175 19 C175.000 19 179 19 179 19 C179.000 19 179 2 179 2 C179.000 2 186 2 186 2 C186.000 2 186 14 186 14 C186.000 14 188 14 188 14 C188.000 14 188 2 188 2 C188.000 2 196 2 196 2 C196.000 2 196 14 196 14 C196.000 14 198 14 198 14 C198.000 14 198 2 198 2 C198.000 2 206 2 206 2 C206.000 2 206 14 206 14 C206.000 14 208 14 208 14 C208.000 14 208 2 208 2 C208.000 2 216 2 216 2 C216.000 2 216 14 216 14 C216.000 14 218 14 218 14 C218.000 14 218 2 218 2 C218.000 2 225 2 225 2 C225.000 2 225 19 225 19 C225.000 19 229 19 229 19 C229.000 19 229 2 229 2 C229.000 2 236 2 236 2 C236.000 2 236 14 236 14 C236.000 14 238 14 238 14 C238.000 14 238 2 238 2 C238.000 2 246 2 246 2 C246.000 2 246 14 246 14 C246.000 14 248 14 248 14 C248.000 14 248 2 248 2 C248.000 2 256 2 256 2 C256.000 2 256 14 256 14 C256.000 14 258 14 258 14 C258.000 14 258 2 258 2 C258.000 2 266 2 266 2 C266.000 2 266 14 266 14 C266.000 14 268 14 268 14 C268.000 14 268 2 268 2 C268.000 2 275 2 275 2 Z" id="path-1" class="style0"/></svg>